<svg width="45" height="50" viewBox="0 0 45 50" fill="none" xmlns="http://www.w3.org/2000/svg">
<path d="M14.0901 26.9269C14.4153 26.8702 14.7404 26.8324 15.0847 26.8324C15.7159 26.8324 16.328 26.9458 16.9018 27.1347C19.178 27.8906 20.67 30.0446 20.67 32.4065V35.033C16.7106 34.2961 13.5163 31.3673 12.4452 27.5504C12.7512 27.3615 13.2102 27.1347 13.7649 26.9647V26.9836C13.8797 26.9647 13.9753 26.9458 14.0901 26.9269ZM24.6102 34.7117V32.4065C24.6102 30.0446 26.1022 27.8906 28.3783 27.1347C28.9521 26.9458 29.5642 26.8324 30.1954 26.8324C30.5397 26.8324 30.8649 26.8702 31.1901 26.9269C31.3048 26.9458 31.4005 26.9647 31.5152 26.9836V26.9647C32.0699 27.1347 32.5099 27.3615 32.835 27.5504C31.783 31.3295 28.6079 34.2583 24.6867 35.0141C24.6485 34.9196 24.6293 34.8062 24.6102 34.7117ZM19.6562 24.7728C19.6562 23.1478 20.9951 21.8441 22.621 21.8441C24.2659 21.8441 25.5857 23.1667 25.5857 24.7728C25.5857 26.3978 24.2468 27.7016 22.621 27.7016C20.9951 27.7016 19.6562 26.3978 19.6562 24.7728ZM24.6867 38.5664C28.0914 38.0751 31.1136 36.3745 33.275 33.9181C35.4364 31.4618 36.7562 28.2685 36.7562 24.7539C36.7562 22.9022 36.3927 21.1449 35.7233 19.5199C35.7615 19.501 35.7807 19.501 35.8189 19.4821L40.792 16.7423V34.4094L24.7059 44.3672L24.6867 38.5664ZM22.6401 14.3237C27.8428 14.3237 32.1656 18.0461 33.0454 22.94C32.4333 22.5999 31.5344 22.1086 31.4005 22.0519C28.8756 20.5214 25.8918 19.6522 22.7166 19.6522H22.5827C19.4075 19.6522 16.4237 20.5214 13.8988 22.0519C13.7841 22.1275 12.866 22.6188 12.2539 22.9589C13.0955 18.065 17.4374 14.3237 22.6401 14.3237ZM21.8367 0.45459C21.4924 0.45459 21.1481 0.549065 20.8421 0.719123L1.42773 11.7918C1.40861 11.7918 1.40861 11.8107 1.38948 11.8107C1.35122 11.8296 1.3321 11.8484 1.29384 11.8673C1.27471 11.8862 1.23646 11.9051 1.21733 11.924C1.19821 11.9429 1.15995 11.9618 1.14082 11.9807C1.12169 11.9996 1.08344 12.0185 1.06431 12.0563C1.04518 12.0752 1.02606 12.0941 1.00693 12.113C0.987802 12.1508 0.949548 12.1697 0.930421 12.2075C0.911293 12.2264 0.892166 12.2452 0.892166 12.2641C0.853911 12.3019 0.834782 12.3397 0.815655 12.3775C0.796527 12.3964 0.796528 12.4153 0.7774 12.4153C0.758273 12.4531 0.720019 12.4909 0.700892 12.5287C0.700892 12.5287 0.70089 12.5476 0.681763 12.5476C0.681763 12.5476 0.681762 12.5665 0.662634 12.5665C0.643507 12.6043 0.624382 12.6421 0.605254 12.6987C0.605254 12.7176 0.586126 12.7365 0.586126 12.7554C0.566998 12.7932 0.547871 12.831 0.547871 12.8688C0.547871 12.8877 0.528743 12.9255 0.528743 12.9444C0.509615 12.9822 0.509616 13.02 0.490488 13.0577C0.490488 13.0766 0.47136 13.1144 0.47136 13.1333C0.47136 13.1711 0.452234 13.2089 0.452234 13.2467C0.452234 13.2656 0.452234 13.3034 0.452234 13.3223C0.452234 13.3601 0.452234 13.3979 0.452234 13.4357C0.452234 13.4545 0.452234 13.4734 0.452234 13.5112C0.452234 13.549 0.452234 13.6057 0.452234 13.6435V13.7002C0.452234 13.738 0.47136 13.7947 0.47136 13.8325C0.47136 13.8513 0.47136 13.8702 0.47136 13.8702C0.47136 13.908 0.49049 13.9647 0.509617 14.0025C0.509617 14.0214 0.509615 14.0403 0.528743 14.0592C0.54787 14.097 0.54787 14.1348 0.566997 14.1915C0.566997 14.2104 0.586126 14.2293 0.586126 14.2481C0.605253 14.2859 0.624381 14.3237 0.643509 14.3615C0.662636 14.3804 0.662636 14.4182 0.681763 14.4371C0.681763 14.456 0.700892 14.4749 0.700892 14.4938C0.700892 14.5127 0.720017 14.5127 0.720017 14.5316C0.758272 14.5883 0.796528 14.6449 0.834783 14.7016C0.834783 14.7205 0.853909 14.7205 0.853909 14.7394C0.892164 14.7961 0.949547 14.8528 1.00693 14.9095C1.02606 14.9284 1.04518 14.9473 1.06431 14.9662C1.10257 15.004 1.14082 15.0418 1.17908 15.0606C1.19821 15.0795 1.23646 15.0984 1.25559 15.1173C1.29384 15.1362 1.3321 15.174 1.38948 15.1929C1.40861 15.2118 1.44686 15.2307 1.46599 15.2307L9.42301 19.5577C9.46127 19.5766 9.48039 19.5766 9.51865 19.5955C8.86832 21.2016 8.50489 22.94 8.50489 24.7539C8.50489 31.783 13.8032 37.6216 20.67 38.5664L20.6891 44.594L4.44987 35.7132V23.0911C4.44987 21.9952 3.55088 21.1071 2.44149 21.1071C1.3321 21.1071 0.433105 21.9952 0.433105 23.0911V36.8847C0.433105 37.6027 0.834784 38.2641 1.46599 38.6231L21.7411 49.6957C21.8176 49.7335 21.875 49.7713 21.9515 49.7902H21.9706C21.9898 49.7902 21.9898 49.7902 22.0089 49.8091C22.0663 49.828 22.1236 49.8469 22.181 49.8658C22.2002 49.8658 22.2193 49.8847 22.2384 49.8847C22.2958 49.9036 22.3532 49.9036 22.4106 49.9225C22.4297 49.9225 22.4488 49.9225 22.4679 49.9225C22.5444 49.9225 22.621 49.9413 22.6975 49.9413C22.7549 49.9413 22.8122 49.9413 22.8696 49.9413C22.8887 49.9413 22.9079 49.9413 22.9079 49.9413C22.9653 49.9413 23.0226 49.9225 23.08 49.9225H23.0991C23.1374 49.9225 23.1565 49.9036 23.1948 49.9036C23.2139 49.9036 23.233 49.8847 23.2522 49.8847C23.2713 49.8847 23.2904 49.8658 23.3095 49.8658C23.3478 49.8469 23.3861 49.8469 23.4052 49.828C23.4052 49.828 23.4243 49.828 23.4243 49.8091C23.4434 49.8091 23.4434 49.8091 23.4626 49.7902C23.5008 49.7713 23.5582 49.7524 23.5965 49.7146C23.6156 49.7146 23.6347 49.6957 23.6347 49.6957C23.6538 49.6957 23.6538 49.6768 23.673 49.6768C23.6921 49.6768 23.6921 49.6579 23.7112 49.6579L43.7951 37.2248C44.388 36.8658 44.7323 36.2234 44.7323 35.5431V13.3979C44.7323 13.1711 44.694 12.9255 44.5984 12.6987C44.5793 12.6798 44.5793 12.6421 44.5602 12.6043C44.5602 12.5854 44.541 12.5665 44.541 12.5476C44.5219 12.5098 44.5028 12.472 44.4836 12.4342C44.4645 12.4153 44.4645 12.3964 44.4454 12.3775C44.4263 12.3397 44.4071 12.3208 44.388 12.283C44.3689 12.2453 44.3498 12.2264 44.3306 12.1886C44.3115 12.1697 44.2924 12.1508 44.2732 12.1319C44.2541 12.0941 44.2159 12.0752 44.1967 12.0374C44.1776 12.0185 44.1585 11.9996 44.1585 11.9807C44.1202 11.9429 44.1011 11.924 44.0628 11.9051C44.0437 11.8862 44.0246 11.8673 44.0055 11.8673C43.9672 11.8484 43.9481 11.8296 43.9098 11.7918C43.8907 11.7729 43.8716 11.754 43.8524 11.754C43.8142 11.7351 43.7951 11.7162 43.7568 11.6973C43.7377 11.6784 43.6994 11.6595 43.6803 11.6595C43.6612 11.6406 43.6229 11.6406 43.6038 11.6217C43.5655 11.6028 43.5464 11.5839 43.5081 11.5839C43.489 11.565 43.4699 11.565 43.4316 11.565C43.3934 11.5461 43.3551 11.5461 43.3169 11.5272C43.2977 11.5272 43.2595 11.5083 43.2404 11.5083C43.2021 11.5083 43.1638 11.4894 43.1256 11.4894C43.0873 11.4894 43.0682 11.4894 43.03 11.4705C42.9917 11.4705 42.9726 11.4516 42.9343 11.4516C42.8961 11.4516 42.8387 11.4516 42.8004 11.4516C42.7813 11.4516 42.7622 11.4516 42.743 11.4516C42.6857 11.4516 42.6474 11.4516 42.59 11.4516C42.5709 11.4516 42.5518 11.4516 42.5326 11.4516C42.4944 11.4516 42.4561 11.4705 42.4179 11.4705C42.1884 11.5083 41.9588 11.5839 41.7484 11.6973L33.7914 16.0621C33.734 16.0999 33.6958 16.1188 33.6384 16.1566C31.0562 12.9255 27.0585 10.847 22.5636 10.847C18.0495 10.847 14.0327 12.9444 11.4505 16.1944C11.3931 16.1566 11.3549 16.1377 11.2975 16.0999L6.45826 13.4734L21.8176 4.70603L33.9635 11.0737C34.939 11.5839 36.1632 11.2249 36.6796 10.2423C37.1961 9.27869 36.8327 8.06939 35.838 7.55922L22.7166 0.681333C22.4297 0.53017 22.1045 0.45459 21.7985 0.45459H21.8367Z" fill="url(#paint0_linear_263_573)"/>
<mask id="mask0_263_573" style="mask-type:luminance" maskUnits="userSpaceOnUse" x="0" y="0" width="45" height="50">
<path d="M14.0901 26.9269C14.4153 26.8702 14.7404 26.8324 15.0847 26.8324C15.7159 26.8324 16.328 26.9458 16.9018 27.1347C19.178 27.8906 20.67 30.0446 20.67 32.4065V35.033C16.7106 34.2961 13.5163 31.3673 12.4452 27.5504C12.7512 27.3615 13.2102 27.1347 13.7649 26.9647V26.9836C13.8797 26.9647 13.9753 26.9458 14.0901 26.9269ZM24.6102 34.7117V32.4065C24.6102 30.0446 26.1022 27.8906 28.3783 27.1347C28.9521 26.9458 29.5642 26.8324 30.1954 26.8324C30.5397 26.8324 30.8649 26.8702 31.1901 26.9269C31.3048 26.9458 31.4005 26.9647 31.5152 26.9836V26.9647C32.0699 27.1347 32.5099 27.3615 32.835 27.5504C31.783 31.3295 28.6079 34.2583 24.6867 35.0141C24.6485 34.9196 24.6293 34.8062 24.6102 34.7117ZM19.6562 24.7728C19.6562 23.1478 20.9951 21.8441 22.621 21.8441C24.2659 21.8441 25.5857 23.1667 25.5857 24.7728C25.5857 26.3978 24.2468 27.7016 22.621 27.7016C20.9951 27.7016 19.6562 26.3978 19.6562 24.7728ZM24.6867 38.5664C28.0914 38.0751 31.1136 36.3745 33.275 33.9181C35.4364 31.4618 36.7562 28.2685 36.7562 24.7539C36.7562 22.9022 36.3927 21.1449 35.7233 19.5199C35.7615 19.501 35.7807 19.501 35.8189 19.4821L40.792 16.7423V34.4094L24.7059 44.3672L24.6867 38.5664ZM22.6401 14.3237C27.8428 14.3237 32.1656 18.0461 33.0454 22.94C32.4333 22.5999 31.5344 22.1086 31.4005 22.0519C28.8756 20.5214 25.8918 19.6522 22.7166 19.6522H22.5827C19.4075 19.6522 16.4237 20.5214 13.8988 22.0519C13.7841 22.1275 12.866 22.6188 12.2539 22.9589C13.0955 18.065 17.4374 14.3237 22.6401 14.3237ZM21.8367 0.45459C21.4924 0.45459 21.1481 0.549065 20.8421 0.719123L1.42773 11.7918C1.40861 11.7918 1.40861 11.8107 1.38948 11.8107C1.35122 11.8296 1.3321 11.8484 1.29384 11.8673C1.27471 11.8862 1.23646 11.9051 1.21733 11.924C1.19821 11.9429 1.15995 11.9618 1.14082 11.9807C1.12169 11.9996 1.08344 12.0185 1.06431 12.0563C1.04518 12.0752 1.02606 12.0941 1.00693 12.113C0.987802 12.1508 0.949548 12.1697 0.930421 12.2075C0.911293 12.2264 0.892166 12.2452 0.892166 12.2641C0.853911 12.3019 0.834782 12.3397 0.815655 12.3775C0.796527 12.3964 0.796528 12.4153 0.7774 12.4153C0.758273 12.4531 0.720019 12.4909 0.700892 12.5287C0.700892 12.5287 0.70089 12.5476 0.681763 12.5476C0.681763 12.5476 0.681762 12.5665 0.662634 12.5665C0.643507 12.6043 0.624382 12.6421 0.605254 12.6987C0.605254 12.7176 0.586126 12.7365 0.586126 12.7554C0.566998 12.7932 0.547871 12.831 0.547871 12.8688C0.547871 12.8877 0.528743 12.9255 0.528743 12.9444C0.509615 12.9822 0.509616 13.02 0.490488 13.0577C0.490488 13.0766 0.47136 13.1144 0.47136 13.1333C0.47136 13.1711 0.452234 13.2089 0.452234 13.2467C0.452234 13.2656 0.452234 13.3034 0.452234 13.3223C0.452234 13.3601 0.452234 13.3979 0.452234 13.4357C0.452234 13.4545 0.452234 13.4734 0.452234 13.5112C0.452234 13.549 0.452234 13.6057 0.452234 13.6435V13.7002C0.452234 13.738 0.47136 13.7947 0.47136 13.8325C0.47136 13.8513 0.47136 13.8702 0.47136 13.8702C0.47136 13.908 0.49049 13.9647 0.509617 14.0025C0.509617 14.0214 0.509615 14.0403 0.528743 14.0592C0.54787 14.097 0.54787 14.1348 0.566997 14.1915C0.566997 14.2104 0.586126 14.2293 0.586126 14.2481C0.605253 14.2859 0.624381 14.3237 0.643509 14.3615C0.662636 14.3804 0.662636 14.4182 0.681763 14.4371C0.681763 14.456 0.700892 14.4749 0.700892 14.4938C0.700892 14.5127 0.720017 14.5127 0.720017 14.5316C0.758272 14.5883 0.796528 14.6449 0.834783 14.7016C0.834783 14.7205 0.853909 14.7205 0.853909 14.7394C0.892164 14.7961 0.949547 14.8528 1.00693 14.9095C1.02606 14.9284 1.04518 14.9473 1.06431 14.9662C1.10257 15.004 1.14082 15.0418 1.17908 15.0606C1.19821 15.0795 1.23646 15.0984 1.25559 15.1173C1.29384 15.1362 1.3321 15.174 1.38948 15.1929C1.40861 15.2118 1.44686 15.2307 1.46599 15.2307L9.42301 19.5577C9.46127 19.5766 9.48039 19.5766 9.51865 19.5955C8.86832 21.2016 8.50489 22.94 8.50489 24.7539C8.50489 31.783 13.8032 37.6216 20.67 38.5664L20.6891 44.594L4.44987 35.7132V23.0911C4.44987 21.9952 3.55088 21.1071 2.44149 21.1071C1.3321 21.1071 0.433105 21.9952 0.433105 23.0911V36.8847C0.433105 37.6027 0.834784 38.2641 1.46599 38.6231L21.7411 49.6957C21.8176 49.7335 21.875 49.7713 21.9515 49.7902H21.9706C21.9898 49.7902 21.9898 49.7902 22.0089 49.8091C22.0663 49.828 22.1236 49.8469 22.181 49.8658C22.2002 49.8658 22.2193 49.8847 22.2384 49.8847C22.2958 49.9036 22.3532 49.9036 22.4106 49.9225C22.4297 49.9225 22.4488 49.9225 22.4679 49.9225C22.5444 49.9225 22.621 49.9413 22.6975 49.9413C22.7549 49.9413 22.8122 49.9413 22.8696 49.9413C22.8887 49.9413 22.9079 49.9413 22.9079 49.9413C22.9653 49.9413 23.0226 49.9225 23.08 49.9225H23.0991C23.1374 49.9225 23.1565 49.9036 23.1948 49.9036C23.2139 49.9036 23.233 49.8847 23.2522 49.8847C23.2713 49.8847 23.2904 49.8658 23.3095 49.8658C23.3478 49.8469 23.3861 49.8469 23.4052 49.828C23.4052 49.828 23.4243 49.828 23.4243 49.8091C23.4434 49.8091 23.4434 49.8091 23.4626 49.7902C23.5008 49.7713 23.5582 49.7524 23.5965 49.7146C23.6156 49.7146 23.6347 49.6957 23.6347 49.6957C23.6538 49.6957 23.6538 49.6768 23.673 49.6768C23.6921 49.6768 23.6921 49.6579 23.7112 49.6579L43.7951 37.2248C44.388 36.8658 44.7323 36.2234 44.7323 35.5431V13.3979C44.7323 13.1711 44.694 12.9255 44.5984 12.6987C44.5793 12.6798 44.5793 12.6421 44.5602 12.6043C44.5602 12.5854 44.541 12.5665 44.541 12.5476C44.5219 12.5098 44.5028 12.472 44.4836 12.4342C44.4645 12.4153 44.4645 12.3964 44.4454 12.3775C44.4263 12.3397 44.4071 12.3208 44.388 12.283C44.3689 12.2453 44.3498 12.2264 44.3306 12.1886C44.3115 12.1697 44.2924 12.1508 44.2732 12.1319C44.2541 12.0941 44.2159 12.0752 44.1967 12.0374C44.1776 12.0185 44.1585 11.9996 44.1585 11.9807C44.1202 11.9429 44.1011 11.924 44.0628 11.9051C44.0437 11.8862 44.0246 11.8673 44.0055 11.8673C43.9672 11.8484 43.9481 11.8296 43.9098 11.7918C43.8907 11.7729 43.8716 11.754 43.8524 11.754C43.8142 11.7351 43.7951 11.7162 43.7568 11.6973C43.7377 11.6784 43.6994 11.6595 43.6803 11.6595C43.6612 11.6406 43.6229 11.6406 43.6038 11.6217C43.5655 11.6028 43.5464 11.5839 43.5081 11.5839C43.489 11.565 43.4699 11.565 43.4316 11.565C43.3934 11.5461 43.3551 11.5461 43.3169 11.5272C43.2977 11.5272 43.2595 11.5083 43.2404 11.5083C43.2021 11.5083 43.1638 11.4894 43.1256 11.4894C43.0873 11.4894 43.0682 11.4894 43.03 11.4705C42.9917 11.4705 42.9726 11.4516 42.9343 11.4516C42.8961 11.4516 42.8387 11.4516 42.8004 11.4516C42.7813 11.4516 42.7622 11.4516 42.743 11.4516C42.6857 11.4516 42.6474 11.4516 42.59 11.4516C42.5709 11.4516 42.5518 11.4516 42.5326 11.4516C42.4944 11.4516 42.4561 11.4705 42.4179 11.4705C42.1884 11.5083 41.9588 11.5839 41.7484 11.6973L33.7914 16.0621C33.734 16.0999 33.6958 16.1188 33.6384 16.1566C31.0562 12.9255 27.0585 10.847 22.5636 10.847C18.0495 10.847 14.0327 12.9444 11.4505 16.1944C11.3931 16.1566 11.3549 16.1377 11.2975 16.0999L6.45826 13.4734L21.8176 4.70603L33.9635 11.0737C34.939 11.5839 36.1632 11.2249 36.6796 10.2423C37.1961 9.27869 36.8327 8.06939 35.838 7.55922L22.7166 0.681333C22.4297 0.53017 22.1045 0.45459 21.7985 0.45459H21.8367Z" fill="white"/>
</mask>
<g mask="url(#mask0_263_573)">
<path d="M44.7897 0.45459H0.433105V49.9602H44.7897V0.45459Z" fill="url(#paint1_linear_263_573)"/>
</g>
<defs>
<linearGradient id="paint0_linear_263_573" x1="0.430638" y1="25.2027" x2="44.7875" y2="25.2027" gradientUnits="userSpaceOnUse">
<stop stop-color="#2E469A"/>
<stop offset="0.00173504" stop-color="#2E469A"/>
<stop offset="0.5489" stop-color="#4CBAEB"/>
<stop offset="0.6118" stop-color="#4BB8E9"/>
<stop offset="0.6756" stop-color="#49AFE3"/>
<stop offset="0.7399" stop-color="#45A2D9"/>
<stop offset="0.8046" stop-color="#4190CC"/>
<stop offset="0.8695" stop-color="#3B7BBD"/>
<stop offset="0.9347" stop-color="#3463AC"/>
<stop offset="0.999" stop-color="#2E469A"/>
<stop offset="1" stop-color="#2E469A"/>
</linearGradient>
<linearGradient id="paint1_linear_263_573" x1="0.430638" y1="25.2027" x2="44.7875" y2="25.2027" gradientUnits="userSpaceOnUse">
<stop stop-color="#2E469A"/>
<stop offset="0.00173504" stop-color="#2E469A"/>
<stop offset="0.5489" stop-color="#4CBAEB"/>
<stop offset="0.6118" stop-color="#4BB8E9"/>
<stop offset="0.6756" stop-color="#49AFE3"/>
<stop offset="0.7399" stop-color="#45A2D9"/>
<stop offset="0.8046" stop-color="#4190CC"/>
<stop offset="0.8695" stop-color="#3B7BBD"/>
<stop offset="0.9347" stop-color="#3463AC"/>
<stop offset="0.999" stop-color="#2E469A"/>
<stop offset="1" stop-color="#2E469A"/>
</linearGradient>
</defs>
</svg>
